<?xml version="1.0" standalone="no"?>
<!DOCTYPE svg PUBLIC "-//W3C//DTD SVG 20010904//EN"
 "http://www.w3.org/TR/2001/REC-SVG-20010904/DTD/svg10.dtd">
<svg version="1.0" xmlns="http://www.w3.org/2000/svg"
 width="1274.000000pt" height="1274.000000pt" viewBox="0 0 1274.000000 1274.000000"
 preserveAspectRatio="xMidYMid meet">
<metadata>
Created by potrace 1.14, written by Peter Selinger 2001-2017
</metadata>
<g transform="translate(0.000000,1274.000000) scale(0.100000,-0.100000)"
fill="#000000" stroke="none">
<path d="M2201 11776 c-50 -18 -103 -76 -128 -139 -12 -30 -40 -127 -62 -214
-49 -189 -158 -629 -165 -663 -3 -14 -42 -171 -86 -350 -45 -179 -83 -332 -85
-340 -12 -51 -221 -895 -245 -990 -16 -63 -31 -126 -34 -140 -2 -14 -44 -180
-91 -370 -48 -190 -88 -353 -90 -363 -2 -10 -7 -27 -10 -37 -3 -10 -7 -27 -9
-37 -4 -20 -51 -208 -182 -738 -46 -187 -86 -349 -88 -360 -3 -11 -41 -165
-85 -342 -44 -176 -123 -496 -176 -710 -52 -213 -102 -413 -110 -443 -14 -51
-122 -492 -130 -533 -2 -10 -7 -27 -10 -37 -3 -10 -8 -27 -10 -37 -2 -10 -29
-119 -60 -243 -31 -124 -58 -232 -60 -240 -2 -8 -22 -91 -45 -185 -23 -93 -43
-177 -45 -185 -2 -8 -20 -80 -40 -160 -163 -655 -167 -680 -124 -767 43 -87
107 -117 404 -188 83 -20 164 -40 180 -45 17 -5 41 -11 55 -14 23 -5 325 -78
380 -93 14 -3 30 -7 35 -9 65 -16 103 -25 118 -29 10 -2 26 -6 35 -9 9 -3 28
-7 42 -10 14 -2 50 -11 80 -20 30 -8 66 -17 80 -20 14 -2 151 -36 305 -75 283
-71 807 -200 835 -206 8 -2 98 -24 200 -50 179 -45 203 -51 245 -60 11 -3 29
-7 40 -9 11 -3 218 -54 460 -115 242 -60 600 -148 795 -196 195 -48 378 -93
405 -101 43 -11 762 -190 805 -199 8 -2 44 -11 80 -20 36 -9 72 -18 80 -20 12
-3 131 -32 200 -50 19 -4 150 -36 170 -40 19 -4 416 -103 450 -112 14 -3 30
-7 35 -8 6 -2 249 -62 540 -135 292 -72 537 -133 545 -135 8 -2 216 -53 461
-114 245 -61 468 -113 496 -117 72 -8 127 10 173 57 47 48 92 138 115 229 0 3
5 23 10 45 4 22 9 45 11 50 6 23 66 261 69 275 2 8 38 152 80 320 42 168 78
312 80 320 16 69 207 843 215 870 9 30 145 585 155 630 2 8 31 125 65 260 34
135 63 252 65 260 2 8 8 33 14 55 24 96 43 171 46 185 2 8 22 91 45 183 23 93
43 176 45 185 2 10 33 134 69 277 63 254 125 505 131 535 2 8 11 44 20 80 9
36 18 72 20 80 2 8 45 179 95 380 50 201 93 373 95 383 2 10 7 27 10 37 3 10
7 27 9 37 2 10 70 284 151 608 81 325 148 599 151 611 2 11 26 108 54 215 27
107 52 209 55 228 3 19 8 37 10 41 2 3 6 17 9 31 3 13 12 53 21 89 9 36 18 70
19 75 23 102 65 188 116 235 35 34 133 116 213 180 11 8 24 20 31 25 15 15
374 307 846 690 569 462 629 514 682 579 123 153 171 332 145 533 -21 161
-144 374 -252 437 -97 57 -244 22 -594 -142 -71 -33 -159 -87 -316 -196 -88
-60 -162 -113 -165 -116 -3 -3 -12 -9 -21 -15 -46 -29 -285 -198 -314 -222 -5
-5 -62 -45 -125 -90 -63 -45 -198 -143 -300 -218 -102 -75 -196 -144 -210
-153 -14 -9 -72 -52 -130 -96 -110 -82 -172 -116 -228 -123 -39 -6 -36 -6
-497 109 -198 49 -369 91 -380 94 -24 4 -917 226 -1030 255 -44 11 -87 22 -95
24 -8 2 -217 53 -465 115 -247 61 -457 113 -465 115 -8 2 -262 64 -565 139
-302 75 -633 157 -735 182 -102 25 -198 49 -215 54 -16 5 -41 11 -55 14 -14 3
-117 28 -230 56 -203 50 -361 89 -390 95 -8 2 -43 11 -77 20 -35 9 -71 18 -80
20 -10 2 -236 58 -503 124 -267 67 -494 123 -505 126 -11 2 -128 31 -260 64
-270 67 -652 161 -675 166 -8 2 -116 29 -240 60 -238 60 -348 73 -409 51z
m552 -565 c23 -5 51 -12 62 -14 98 -25 324 -80 338 -83 10 -2 27 -6 37 -9 10
-3 27 -8 37 -10 42 -8 921 -226 948 -235 17 -5 41 -11 55 -14 14 -2 99 -23
190 -46 91 -22 172 -43 180 -44 9 -2 200 -50 425 -106 226 -56 417 -103 425
-105 8 -2 164 -40 345 -85 182 -45 337 -83 345 -85 8 -2 35 -8 60 -15 25 -7
52 -13 60 -15 8 -2 69 -17 135 -34 66 -16 131 -32 145 -35 14 -2 223 -54 465
-115 242 -60 517 -128 610 -150 94 -23 186 -46 205 -51 61 -17 605 -151 670
-165 8 -2 116 -29 240 -60 389 -97 755 -187 765 -189 16 -3 58 -16 87 -28 27
-10 26 -11 -83 -92 -246 -180 -280 -205 -312 -229 -17 -14 -129 -97 -247 -184
-118 -87 -298 -220 -400 -296 -299 -222 -675 -501 -701 -519 -51 -38 -742
-550 -819 -608 -14 -10 -74 -55 -135 -99 -60 -44 -114 -84 -120 -88 -5 -5
-134 -100 -285 -211 -151 -112 -282 -208 -290 -215 -8 -7 -127 -95 -265 -197
-137 -101 -254 -188 -260 -193 -51 -42 -755 -557 -762 -557 -5 0 -19 19 -31
43 -12 23 -39 74 -60 112 -21 39 -68 126 -104 195 -36 69 -77 145 -90 170 -14
25 -60 113 -103 195 -43 83 -85 164 -95 180 -10 17 -43 80 -75 140 -32 61 -76
144 -98 185 -22 41 -57 107 -77 145 -49 92 -108 202 -157 295 -22 41 -62 116
-88 165 -117 219 -251 353 -448 445 -126 59 -222 81 -367 86 -126 4 -218 -8
-319 -42 -417 -139 -617 -549 -460 -942 23 -55 112 -229 309 -597 43 -80 104
-195 180 -340 29 -55 69 -131 90 -170 21 -38 58 -109 84 -157 25 -49 66 -125
90 -170 24 -46 70 -132 102 -193 31 -60 81 -154 110 -208 29 -54 63 -117 74
-140 12 -23 25 -49 30 -57 9 -15 91 -169 210 -395 35 -66 75 -142 90 -170 15
-27 51 -95 80 -150 29 -55 70 -131 90 -170 21 -38 63 -119 95 -180 32 -60 70
-132 85 -160 15 -27 58 -108 95 -180 38 -71 84 -159 104 -195 20 -36 49 -93
65 -128 16 -34 32 -62 36 -62 5 0 105 79 175 138 11 9 67 55 125 102 57 47
114 92 125 101 50 41 378 308 685 558 399 324 348 282 445 362 44 36 141 114
215 174 74 60 137 112 140 115 3 3 61 50 130 105 69 55 127 102 130 105 3 3
28 24 55 45 28 22 52 42 55 45 3 3 28 23 55 45 28 21 52 42 55 45 3 3 50 41
105 85 55 44 102 82 105 86 3 3 39 32 80 65 41 32 80 64 86 69 6 6 30 26 54
45 138 111 266 215 270 220 3 3 48 39 100 80 52 41 97 77 100 80 5 5 99 83
130 107 23 18 102 82 125 101 28 24 202 165 390 317 88 72 171 140 185 151 14
12 147 120 295 241 229 185 1058 859 1181 960 156 127 157 127 124 3 -7 -25
-13 -52 -15 -60 -2 -8 -15 -62 -30 -120 -15 -58 -28 -112 -30 -120 -2 -8 -25
-100 -50 -205 -26 -104 -48 -194 -49 -200 -2 -5 -8 -28 -14 -50 -6 -22 -13
-51 -16 -65 -3 -14 -16 -70 -30 -125 -38 -149 -96 -386 -102 -415 -3 -14 -9
-38 -14 -55 -5 -16 -11 -41 -14 -55 -3 -14 -14 -59 -25 -100 -11 -41 -23 -90
-26 -109 -3 -19 -8 -37 -10 -41 -2 -3 -6 -17 -9 -31 -2 -13 -25 -105 -50 -204
-51 -204 -266 -1072 -271 -1095 -2 -8 -18 -73 -35 -144 -18 -71 -34 -138 -36
-149 -2 -11 -8 -34 -14 -51 -5 -18 -17 -63 -25 -101 -9 -39 -17 -77 -20 -85
-2 -8 -58 -235 -124 -505 -67 -269 -128 -515 -136 -545 -19 -70 -135 -538
-140 -565 -2 -11 -36 -148 -75 -305 -39 -157 -73 -292 -75 -301 -2 -8 -29
-117 -60 -242 -31 -125 -58 -235 -60 -244 -3 -10 -12 -49 -21 -88 -9 -38 -20
-74 -25 -79 -5 -6 -9 -17 -9 -26 0 -8 -16 -39 -35 -68 -38 -56 -89 -89 -148
-95 -34 -3 -128 6 -172 17 -19 4 -252 63 -287 72 -10 2 -26 6 -35 8 -10 2
-121 30 -248 61 -126 31 -237 58 -245 60 -43 10 -802 198 -845 210 -38 10
-268 67 -405 100 -8 2 -73 18 -145 35 -71 17 -137 33 -145 35 -8 2 -125 31
-260 65 -135 34 -252 63 -260 65 -8 2 -206 51 -440 108 -563 140 -882 218
-900 222 -8 2 -197 49 -420 105 -457 114 -516 128 -547 135 -13 3 -31 7 -40
10 -31 8 -267 66 -283 70 -8 2 -71 17 -140 35 -69 17 -132 33 -140 35 -9 2
-119 29 -245 60 -1023 252 -1281 318 -1331 336 -66 25 -131 80 -151 127 -8 19
-14 59 -14 90 -1 62 1 71 91 437 34 138 63 257 65 265 2 8 31 125 65 260 34
135 63 253 65 263 2 10 7 27 10 37 3 10 8 27 10 37 2 10 47 194 100 408 53
215 99 401 101 415 3 14 18 75 34 135 16 61 31 121 34 135 4 20 46 190 71 290
9 33 86 346 90 360 2 8 33 137 70 285 37 149 69 277 70 285 2 8 18 71 35 140
17 69 33 134 36 146 2 11 29 119 59 240 31 120 58 231 60 246 3 15 9 38 15 52
5 15 7 26 4 26 -2 0 0 8 5 18 5 9 11 31 14 47 3 17 22 95 42 175 20 80 38 152
40 160 5 23 179 728 246 995 32 132 61 249 64 260 2 11 8 35 14 53 5 17 8 32
6 32 -3 0 0 11 5 25 5 14 12 36 14 48 2 12 32 132 66 267 34 135 63 252 65
260 2 8 34 137 70 285 37 149 68 277 70 285 19 96 71 214 108 249 56 51 145
65 260 42z"/>
</g>
</svg>
